<svg width="19" height="19" viewBox="0 0 19 19" fill="none" xmlns="http://www.w3.org/2000/svg">
<path d="M9.5 12.5C11.1569 12.5 12.5 11.1569 12.5 9.5C12.5 7.84315 11.1569 6.5 9.5 6.5C7.84315 6.5 6.5 7.84315 6.5 9.5C6.5 11.1569 7.84315 12.5 9.5 12.5Z" stroke="#535353" stroke-linecap="round" stroke-linejoin="round"/>
<path d="M12.5 6.49999V10.25C12.5 10.8467 12.7371 11.419 13.159 11.841C13.581 12.2629 14.1533 12.5 14.75 12.5C15.3467 12.5 15.919 12.2629 16.341 11.841C16.763 11.419 17 10.8467 17 10.25V9.49999C16.9999 7.80726 16.4272 6.16435 15.375 4.83839C14.3227 3.51243 12.8529 2.58141 11.2045 2.19672C9.55605 1.81202 7.82596 1.99627 6.29552 2.71952C4.76508 3.44276 3.52431 4.66246 2.77495 6.18028C2.0256 7.69811 1.81173 9.4248 2.16813 11.0796C2.52453 12.7344 3.43024 14.2199 4.73798 15.2947C6.04572 16.3695 7.67858 16.9703 9.37106 16.9994C11.0635 17.0285 12.7161 16.4842 14.06 15.455" stroke="#535353" stroke-linecap="round" stroke-linejoin="round"/>
</svg>
