<svg width="19" height="19" viewBox="0 0 19 19" fill="none" xmlns="http://www.w3.org/2000/svg">
<path d="M16.9999 13.19V15.44C17.0008 15.6489 16.958 15.8556 16.8743 16.047C16.7907 16.2384 16.6679 16.4102 16.514 16.5514C16.3601 16.6926 16.1784 16.8001 15.9805 16.867C15.7826 16.934 15.573 16.9588 15.3649 16.94C13.0571 16.6892 10.8402 15.9006 8.89245 14.6375C7.08032 13.486 5.54395 11.9496 4.39245 10.1375C3.12493 8.18092 2.33613 5.95326 2.08995 3.63501C2.07121 3.42761 2.09586 3.21858 2.16233 3.02123C2.22879 2.82388 2.33563 2.64253 2.47602 2.48873C2.61642 2.33493 2.7873 2.21204 2.97779 2.1279C3.16828 2.04376 3.37421 2.00021 3.58245 2.00001H5.83245C6.19643 1.99643 6.54929 2.12532 6.82527 2.36266C7.10125 2.6 7.28151 2.9296 7.33245 3.29001C7.42742 4.01006 7.60354 4.71706 7.85745 5.39751C7.95836 5.66595 7.9802 5.9577 7.92038 6.23817C7.86056 6.51865 7.7216 6.77609 7.51995 6.98001L6.56745 7.93251C7.63512 9.81017 9.18979 11.3648 11.0675 12.4325L12.0199 11.48C12.2239 11.2784 12.4813 11.1394 12.7618 11.0796C13.0423 11.0198 13.334 11.0416 13.6024 11.1425C14.2829 11.3964 14.9899 11.5725 15.71 11.6675C16.0743 11.7189 16.407 11.9024 16.6448 12.1831C16.8827 12.4638 17.0091 12.8222 16.9999 13.19Z" stroke="#535353" stroke-linecap="round" stroke-linejoin="round"/>
</svg>
