<svg width="290" height="35" viewBox="0 0 290 35" fill="none" xmlns="http://www.w3.org/2000/svg">
<path d="M21 24.5C25.4183 24.5 29 20.9183 29 16.5C29 12.0817 25.4183 8.5 21 8.5C16.5817 8.5 13 12.0817 13 16.5C13 20.9183 16.5817 24.5 21 24.5Z" stroke="#535353" stroke-width="2" stroke-linecap="round" stroke-linejoin="round"/>
<path d="M31 26.5L26.65 22.15" stroke="#535353" stroke-width="2" stroke-linecap="round" stroke-linejoin="round"/>
<path d="M60.349 24V10.7H66.372C67.2587 10.7 68.0313 10.8647 68.69 11.194C69.3613 11.5233 69.8807 11.9857 70.248 12.581C70.628 13.1637 70.818 13.8477 70.818 14.633C70.818 15.507 70.571 16.2607 70.077 16.894C69.583 17.5273 68.918 17.9833 68.082 18.262L71.046 24H68.842L66.087 18.547H62.344V24H60.349ZM62.344 16.875H66.22C67.0053 16.875 67.6323 16.6787 68.101 16.286C68.5823 15.8807 68.823 15.336 68.823 14.652C68.823 13.9933 68.5823 13.4613 68.101 13.056C67.6323 12.6507 67.0053 12.448 66.22 12.448H62.344V16.875ZM76.7062 24.171C75.7562 24.171 74.8949 23.9493 74.1222 23.506C73.3622 23.0627 72.7542 22.461 72.2982 21.701C71.8549 20.941 71.6332 20.0923 71.6332 19.155C71.6332 18.2303 71.8486 17.3943 72.2792 16.647C72.7099 15.887 73.2926 15.2853 74.0272 14.842C74.7619 14.386 75.5789 14.158 76.4782 14.158C77.3776 14.158 78.1756 14.386 78.8722 14.842C79.5689 15.2853 80.1199 15.8933 80.5252 16.666C80.9432 17.426 81.1522 18.2873 81.1522 19.25V19.782H73.5332C73.6346 20.314 73.8309 20.789 74.1222 21.207C74.4262 21.625 74.8062 21.9543 75.2622 22.195C75.7309 22.4357 76.2376 22.556 76.7822 22.556C77.2509 22.556 77.7006 22.4863 78.1312 22.347C78.5746 22.195 78.9419 21.9797 79.2332 21.701L80.4492 22.898C79.8792 23.3287 79.2902 23.6517 78.6822 23.867C78.0869 24.0697 77.4282 24.171 76.7062 24.171ZM73.5522 18.357H79.2712C79.1952 17.8503 79.0179 17.407 78.7392 17.027C78.4732 16.6343 78.1376 16.3303 77.7322 16.115C77.3396 15.887 76.9089 15.773 76.4402 15.773C75.9589 15.773 75.5156 15.8807 75.1102 16.096C74.7049 16.3113 74.3629 16.6153 74.0842 17.008C73.8182 17.388 73.6409 17.8377 73.5522 18.357ZM87.5399 24.171C86.6153 24.171 85.7729 23.9493 85.0129 23.506C84.2529 23.0627 83.6513 22.461 83.2079 21.701C82.7773 20.941 82.5619 20.0923 82.5619 19.155C82.5619 18.2177 82.7836 17.3753 83.2269 16.628C83.6703 15.868 84.2656 15.2663 85.0129 14.823C85.7729 14.367 86.6153 14.139 87.5399 14.139C88.2746 14.139 88.9776 14.2783 89.6489 14.557C90.3329 14.8357 90.9219 15.2283 91.4159 15.735L90.2379 17.046C89.8706 16.6407 89.4589 16.3367 89.0029 16.134C88.5469 15.9313 88.0719 15.83 87.5779 15.83C86.9953 15.83 86.4633 15.9757 85.9819 16.267C85.5133 16.5583 85.1396 16.9573 84.8609 17.464C84.5823 17.9707 84.4429 18.5343 84.4429 19.155C84.4429 19.7757 84.5823 20.3393 84.8609 20.846C85.1396 21.3527 85.5196 21.758 86.0009 22.062C86.4823 22.3533 87.0206 22.499 87.6159 22.499C88.1099 22.499 88.5723 22.404 89.0029 22.214C89.4336 22.0113 89.8389 21.72 90.2189 21.34L91.3779 22.556C90.8713 23.0753 90.2823 23.4743 89.6109 23.753C88.9523 24.0317 88.2619 24.171 87.5399 24.171ZM92.9071 24V10.7L94.8071 10.282V15.317C95.5545 14.5317 96.5235 14.139 97.7141 14.139C98.4615 14.139 99.1138 14.2973 99.6711 14.614C100.241 14.9307 100.684 15.374 101.001 15.944C101.33 16.514 101.495 17.1727 101.495 17.92V24H99.5951V18.243C99.5951 17.483 99.3798 16.8877 98.9491 16.457C98.5185 16.0137 97.9295 15.792 97.1821 15.792C96.6755 15.792 96.2195 15.8997 95.8141 16.115C95.4088 16.3303 95.0731 16.6407 94.8071 17.046V24H92.9071ZM108.323 24.171C107.373 24.171 106.512 23.9493 105.739 23.506C104.979 23.0627 104.371 22.461 103.915 21.701C103.472 20.941 103.25 20.0923 103.25 19.155C103.25 18.2303 103.466 17.3943 103.896 16.647C104.327 15.887 104.91 15.2853 105.644 14.842C106.379 14.386 107.196 14.158 108.095 14.158C108.995 14.158 109.793 14.386 110.489 14.842C111.186 15.2853 111.737 15.8933 112.142 16.666C112.56 17.426 112.769 18.2873 112.769 19.25V19.782H105.15C105.252 20.314 105.448 20.789 105.739 21.207C106.043 21.625 106.423 21.9543 106.879 22.195C107.348 22.4357 107.855 22.556 108.399 22.556C108.868 22.556 109.318 22.4863 109.748 22.347C110.192 22.195 110.559 21.9797 110.85 21.701L112.066 22.898C111.496 23.3287 110.907 23.6517 110.299 23.867C109.704 24.0697 109.045 24.171 108.323 24.171ZM105.169 18.357H110.888C110.812 17.8503 110.635 17.407 110.356 17.027C110.09 16.6343 109.755 16.3303 109.349 16.115C108.957 15.887 108.526 15.773 108.057 15.773C107.576 15.773 107.133 15.8807 106.727 16.096C106.322 16.3113 105.98 16.6153 105.701 17.008C105.435 17.388 105.258 17.8377 105.169 18.357ZM114.579 24V14.329H116.479V15.564C116.783 15.108 117.157 14.7533 117.6 14.5C118.056 14.234 118.569 14.101 119.139 14.101C119.532 14.1137 119.855 14.1707 120.108 14.272V15.982C119.931 15.906 119.747 15.8553 119.557 15.83C119.367 15.792 119.177 15.773 118.987 15.773C118.43 15.773 117.936 15.925 117.505 16.229C117.074 16.5203 116.732 16.951 116.479 17.521V24H114.579ZM125.614 24.171C124.689 24.171 123.847 23.9493 123.087 23.506C122.327 23.0627 121.725 22.461 121.282 21.701C120.851 20.941 120.636 20.0923 120.636 19.155C120.636 18.2177 120.858 17.3753 121.301 16.628C121.744 15.868 122.34 15.2663 123.087 14.823C123.847 14.367 124.689 14.139 125.614 14.139C126.349 14.139 127.052 14.2783 127.723 14.557C128.407 14.8357 128.996 15.2283 129.49 15.735L128.312 17.046C127.945 16.6407 127.533 16.3367 127.077 16.134C126.621 15.9313 126.146 15.83 125.652 15.83C125.069 15.83 124.537 15.9757 124.056 16.267C123.587 16.5583 123.214 16.9573 122.935 17.464C122.656 17.9707 122.517 18.5343 122.517 19.155C122.517 19.7757 122.656 20.3393 122.935 20.846C123.214 21.3527 123.594 21.758 124.075 22.062C124.556 22.3533 125.095 22.499 125.69 22.499C126.184 22.499 126.646 22.404 127.077 22.214C127.508 22.0113 127.913 21.72 128.293 21.34L129.452 22.556C128.945 23.0753 128.356 23.4743 127.685 23.753C127.026 24.0317 126.336 24.171 125.614 24.171ZM130.981 24V10.7L132.881 10.282V15.317C133.629 14.5317 134.598 14.139 135.788 14.139C136.536 14.139 137.188 14.2973 137.745 14.614C138.315 14.9307 138.759 15.374 139.075 15.944C139.405 16.514 139.569 17.1727 139.569 17.92V24H137.669V18.243C137.669 17.483 137.454 16.8877 137.023 16.457C136.593 16.0137 136.004 15.792 135.256 15.792C134.75 15.792 134.294 15.8997 133.888 16.115C133.483 16.3303 133.147 16.6407 132.881 17.046V24H130.981ZM146.398 24.171C145.448 24.171 144.586 23.9493 143.814 23.506C143.054 23.0627 142.446 22.461 141.99 21.701C141.546 20.941 141.325 20.0923 141.325 19.155C141.325 18.2303 141.54 17.3943 141.971 16.647C142.401 15.887 142.984 15.2853 143.719 14.842C144.453 14.386 145.27 14.158 146.17 14.158C147.069 14.158 147.867 14.386 148.564 14.842C149.26 15.2853 149.811 15.8933 150.217 16.666C150.635 17.426 150.844 18.2873 150.844 19.25V19.782H143.225C143.326 20.314 143.522 20.789 143.814 21.207C144.118 21.625 144.498 21.9543 144.954 22.195C145.422 22.4357 145.929 22.556 146.474 22.556C146.942 22.556 147.392 22.4863 147.823 22.347C148.266 22.195 148.633 21.9797 148.925 21.701L150.141 22.898C149.571 23.3287 148.982 23.6517 148.374 23.867C147.778 24.0697 147.12 24.171 146.398 24.171ZM143.244 18.357H148.963C148.887 17.8503 148.709 17.407 148.431 17.027C148.165 16.6343 147.829 16.3303 147.424 16.115C147.031 15.887 146.6 15.773 146.132 15.773C145.65 15.773 145.207 15.8807 144.802 16.096C144.396 16.3113 144.054 16.6153 143.776 17.008C143.51 17.388 143.332 17.8377 143.244 18.357ZM152.653 24V14.329H154.553V15.564C154.857 15.108 155.231 14.7533 155.674 14.5C156.13 14.234 156.643 14.101 157.213 14.101C157.606 14.1137 157.929 14.1707 158.182 14.272V15.982C158.005 15.906 157.821 15.8553 157.631 15.83C157.441 15.792 157.251 15.773 157.061 15.773C156.504 15.773 156.01 15.925 155.579 16.229C155.149 16.5203 154.807 16.951 154.553 17.521V24H152.653Z" fill="black"/>
</svg>
