<svg width="290" height="35" viewBox="0 0 290 35" fill="none" xmlns="http://www.w3.org/2000/svg">
<g clip-path="url(#clip0_13_82)">
<path d="M22 20.5C23.6569 20.5 25 19.1569 25 17.5C25 15.8431 23.6569 14.5 22 14.5C20.3431 14.5 19 15.8431 19 17.5C19 19.1569 20.3431 20.5 22 20.5Z" stroke="#535353" stroke-width="2" stroke-linecap="round" stroke-linejoin="round"/>
<path d="M29.4 20.5C29.2669 20.8016 29.2272 21.1362 29.286 21.4606C29.3448 21.785 29.4995 22.0843 29.73 22.32L29.79 22.38C29.976 22.5657 30.1235 22.7863 30.2241 23.0291C30.3248 23.2719 30.3766 23.5322 30.3766 23.795C30.3766 24.0578 30.3248 24.3181 30.2241 24.5609C30.1235 24.8037 29.976 25.0243 29.79 25.21C29.6043 25.396 29.3837 25.5435 29.1409 25.6441C28.8981 25.7448 28.6378 25.7966 28.375 25.7966C28.1122 25.7966 27.8519 25.7448 27.6091 25.6441C27.3663 25.5435 27.1457 25.396 26.96 25.21L26.9 25.15C26.6643 24.9195 26.365 24.7648 26.0406 24.706C25.7162 24.6472 25.3816 24.6869 25.08 24.82C24.7842 24.9468 24.532 25.1572 24.3543 25.4255C24.1766 25.6938 24.0813 26.0082 24.08 26.33V26.5C24.08 27.0304 23.8693 27.5391 23.4942 27.9142C23.1191 28.2893 22.6104 28.5 22.08 28.5C21.5496 28.5 21.0409 28.2893 20.6658 27.9142C20.2907 27.5391 20.08 27.0304 20.08 26.5V26.41C20.0723 26.079 19.9651 25.758 19.7725 25.4887C19.5799 25.2194 19.3107 25.0143 19 24.9C18.6984 24.7669 18.3638 24.7272 18.0394 24.786C17.715 24.8448 17.4157 24.9995 17.18 25.23L17.12 25.29C16.9343 25.476 16.7137 25.6235 16.4709 25.7241C16.2281 25.8248 15.9678 25.8766 15.705 25.8766C15.4422 25.8766 15.1819 25.8248 14.9391 25.7241C14.6963 25.6235 14.4757 25.476 14.29 25.29C14.104 25.1043 13.9565 24.8837 13.8559 24.6409C13.7552 24.3981 13.7034 24.1378 13.7034 23.875C13.7034 23.6122 13.7552 23.3519 13.8559 23.1091C13.9565 22.8663 14.104 22.6457 14.29 22.46L14.35 22.4C14.5805 22.1643 14.7352 21.865 14.794 21.5406C14.8528 21.2162 14.8131 20.8816 14.68 20.58C14.5532 20.2842 14.3428 20.032 14.0745 19.8543C13.8062 19.6766 13.4918 19.5813 13.17 19.58H13C12.4696 19.58 11.9609 19.3693 11.5858 18.9942C11.2107 18.6191 11 18.1104 11 17.58C11 17.0496 11.2107 16.5409 11.5858 16.1658C11.9609 15.7907 12.4696 15.58 13 15.58H13.09C13.421 15.5723 13.742 15.4651 14.0113 15.2725C14.2806 15.0799 14.4857 14.8107 14.6 14.5C14.7331 14.1984 14.7728 13.8638 14.714 13.5394C14.6552 13.215 14.5005 12.9157 14.27 12.68L14.21 12.62C14.024 12.4343 13.8765 12.2137 13.7759 11.9709C13.6752 11.7281 13.6234 11.4678 13.6234 11.205C13.6234 10.9422 13.6752 10.6819 13.7759 10.4391C13.8765 10.1963 14.024 9.97575 14.21 9.79C14.3957 9.60405 14.6163 9.45653 14.8591 9.35588C15.1019 9.25523 15.3622 9.20343 15.625 9.20343C15.8878 9.20343 16.1481 9.25523 16.3909 9.35588C16.6337 9.45653 16.8543 9.60405 17.04 9.79L17.1 9.85C17.3357 10.0805 17.635 10.2352 17.9594 10.294C18.2838 10.3528 18.6184 10.3131 18.92 10.18H19C19.2958 10.0532 19.548 9.84276 19.7257 9.57447C19.9034 9.30618 19.9987 8.99179 20 8.67V8.5C20 7.96957 20.2107 7.46086 20.5858 7.08579C20.9609 6.71071 21.4696 6.5 22 6.5C22.5304 6.5 23.0391 6.71071 23.4142 7.08579C23.7893 7.46086 24 7.96957 24 8.5V8.59C24.0013 8.91179 24.0966 9.22618 24.2743 9.49447C24.452 9.76276 24.7042 9.97324 25 10.1C25.3016 10.2331 25.6362 10.2728 25.9606 10.214C26.285 10.1552 26.5843 10.0005 26.82 9.77L26.88 9.71C27.0657 9.52405 27.2863 9.37653 27.5291 9.27588C27.7719 9.17523 28.0322 9.12343 28.295 9.12343C28.5578 9.12343 28.8181 9.17523 29.0609 9.27588C29.3037 9.37653 29.5243 9.52405 29.71 9.71C29.896 9.89575 30.0435 10.1163 30.1441 10.3591C30.2448 10.6019 30.2966 10.8622 30.2966 11.125C30.2966 11.3878 30.2448 11.6481 30.1441 11.8909C30.0435 12.1337 29.896 12.3543 29.71 12.54L29.65 12.6C29.4195 12.8357 29.2648 13.135 29.206 13.4594C29.1472 13.7838 29.1869 14.1184 29.32 14.42V14.5C29.4468 14.7958 29.6572 15.048 29.9255 15.2257C30.1938 15.4034 30.5082 15.4987 30.83 15.5H31C31.5304 15.5 32.0391 15.7107 32.4142 16.0858C32.7893 16.4609 33 16.9696 33 17.5C33 18.0304 32.7893 18.5391 32.4142 18.9142C32.0391 19.2893 31.5304 19.5 31 19.5H30.91C30.5882 19.5013 30.2738 19.5966 30.0055 19.7743C29.7372 19.952 29.5268 20.2042 29.4 20.5V20.5Z" stroke="#535353" stroke-width="2" stroke-linecap="round" stroke-linejoin="round"/>
</g>
<path d="M60.349 24V10.7H66.505C67.379 10.7 68.139 10.871 68.785 11.213C69.431 11.5423 69.9377 12.0047 70.305 12.6C70.6723 13.1953 70.856 13.8857 70.856 14.671C70.856 15.4563 70.6723 16.1467 70.305 16.742C69.9377 17.3373 69.4247 17.806 68.766 18.148C68.12 18.4773 67.3663 18.642 66.505 18.642H62.344V24H60.349ZM62.344 16.951H66.296C67.0813 16.951 67.702 16.7483 68.158 16.343C68.6267 15.925 68.861 15.374 68.861 14.69C68.861 14.006 68.6267 13.4613 68.158 13.056C67.702 12.6507 67.0813 12.448 66.296 12.448H62.344V16.951ZM75.2591 24.171C74.5624 24.171 73.9481 24.0507 73.4161 23.81C72.8841 23.5567 72.4661 23.2083 72.1621 22.765C71.8581 22.3217 71.7061 21.8087 71.7061 21.226C71.7061 20.314 72.0544 19.5983 72.7511 19.079C73.4478 18.547 74.4041 18.281 75.6201 18.281C76.5701 18.281 77.4504 18.4647 78.2611 18.832V17.806C78.2611 17.1093 78.0584 16.59 77.6531 16.248C77.2604 15.906 76.6778 15.735 75.9051 15.735C75.4618 15.735 74.9994 15.8047 74.5181 15.944C74.0368 16.0707 73.4984 16.2733 72.9031 16.552L72.2001 15.127C72.9348 14.785 73.6188 14.538 74.2521 14.386C74.8854 14.2213 75.5251 14.139 76.1711 14.139C77.4251 14.139 78.3941 14.4367 79.0781 15.032C79.7748 15.6273 80.1231 16.476 80.1231 17.578V24H78.2611V23.164C77.8304 23.506 77.3681 23.7593 76.8741 23.924C76.3801 24.0887 75.8418 24.171 75.2591 24.171ZM73.5301 21.188C73.5301 21.6567 73.7264 22.0367 74.1191 22.328C74.5244 22.6193 75.0501 22.765 75.6961 22.765C76.2028 22.765 76.6651 22.689 77.0831 22.537C77.5138 22.385 77.9064 22.1507 78.2611 21.834V20.2C77.8938 19.9847 77.5074 19.8327 77.1021 19.744C76.7094 19.6427 76.2661 19.592 75.7721 19.592C75.0754 19.592 74.5244 19.7377 74.1191 20.029C73.7264 20.3077 73.5301 20.694 73.5301 21.188ZM82.3124 24V14.329H84.2124V15.564C84.5164 15.108 84.8901 14.7533 85.3334 14.5C85.7894 14.234 86.3024 14.101 86.8724 14.101C87.2651 14.1137 87.5881 14.1707 87.8414 14.272V15.982C87.6641 15.906 87.4804 15.8553 87.2904 15.83C87.1004 15.792 86.9104 15.773 86.7204 15.773C86.1631 15.773 85.6691 15.925 85.2384 16.229C84.8077 16.5203 84.4657 16.951 84.2124 17.521V24H82.3124ZM92.0325 24.171C91.3359 24.171 90.7215 24.0507 90.1895 23.81C89.6575 23.5567 89.2395 23.2083 88.9355 22.765C88.6315 22.3217 88.4795 21.8087 88.4795 21.226C88.4795 20.314 88.8279 19.5983 89.5245 19.079C90.2212 18.547 91.1775 18.281 92.3935 18.281C93.3435 18.281 94.2239 18.4647 95.0345 18.832V17.806C95.0345 17.1093 94.8319 16.59 94.4265 16.248C94.0339 15.906 93.4512 15.735 92.6785 15.735C92.2352 15.735 91.7729 15.8047 91.2915 15.944C90.8102 16.0707 90.2719 16.2733 89.6765 16.552L88.9735 15.127C89.7082 14.785 90.3922 14.538 91.0255 14.386C91.6589 14.2213 92.2985 14.139 92.9445 14.139C94.1985 14.139 95.1675 14.4367 95.8515 15.032C96.5482 15.6273 96.8965 16.476 96.8965 17.578V24H95.0345V23.164C94.6039 23.506 94.1415 23.7593 93.6475 23.924C93.1535 24.0887 92.6152 24.171 92.0325 24.171ZM90.3035 21.188C90.3035 21.6567 90.4999 22.0367 90.8925 22.328C91.2979 22.6193 91.8235 22.765 92.4695 22.765C92.9762 22.765 93.4385 22.689 93.8565 22.537C94.2872 22.385 94.6799 22.1507 95.0345 21.834V20.2C94.6672 19.9847 94.2809 19.8327 93.8755 19.744C93.4829 19.6427 93.0395 19.592 92.5455 19.592C91.8489 19.592 91.2979 19.7377 90.8925 20.029C90.4999 20.3077 90.3035 20.694 90.3035 21.188ZM99.0858 24V14.329H100.986V15.26C101.708 14.5127 102.614 14.139 103.703 14.139C104.362 14.139 104.944 14.2847 105.451 14.576C105.97 14.8673 106.382 15.26 106.686 15.754C107.091 15.222 107.566 14.823 108.111 14.557C108.656 14.2783 109.27 14.139 109.954 14.139C110.676 14.139 111.303 14.2973 111.835 14.614C112.38 14.9307 112.804 15.374 113.108 15.944C113.425 16.514 113.583 17.1727 113.583 17.92V24H111.683V18.243C111.683 17.483 111.48 16.8877 111.075 16.457C110.682 16.0137 110.144 15.792 109.46 15.792C108.991 15.792 108.567 15.8997 108.187 16.115C107.807 16.3303 107.478 16.6597 107.199 17.103C107.224 17.2297 107.243 17.3627 107.256 17.502C107.269 17.6413 107.275 17.7807 107.275 17.92V24H105.394V18.243C105.394 17.483 105.191 16.8877 104.786 16.457C104.393 16.0137 103.855 15.792 103.171 15.792C102.715 15.792 102.303 15.8933 101.936 16.096C101.569 16.286 101.252 16.5773 100.986 16.97V24H99.0858ZM120.403 24.171C119.453 24.171 118.591 23.9493 117.819 23.506C117.059 23.0627 116.451 22.461 115.995 21.701C115.551 20.941 115.33 20.0923 115.33 19.155C115.33 18.2303 115.545 17.3943 115.976 16.647C116.406 15.887 116.989 15.2853 117.724 14.842C118.458 14.386 119.275 14.158 120.175 14.158C121.074 14.158 121.872 14.386 122.569 14.842C123.265 15.2853 123.816 15.8933 124.222 16.666C124.64 17.426 124.849 18.2873 124.849 19.25V19.782H117.23C117.331 20.314 117.527 20.789 117.819 21.207C118.123 21.625 118.503 21.9543 118.959 22.195C119.427 22.4357 119.934 22.556 120.479 22.556C120.947 22.556 121.397 22.4863 121.828 22.347C122.271 22.195 122.638 21.9797 122.93 21.701L124.146 22.898C123.576 23.3287 122.987 23.6517 122.379 23.867C121.783 24.0697 121.125 24.171 120.403 24.171ZM117.249 18.357H122.968C122.892 17.8503 122.714 17.407 122.436 17.027C122.17 16.6343 121.834 16.3303 121.429 16.115C121.036 15.887 120.605 15.773 120.137 15.773C119.655 15.773 119.212 15.8807 118.807 16.096C118.401 16.3113 118.059 16.6153 117.781 17.008C117.515 17.388 117.337 17.8377 117.249 18.357ZM119.719 12.543L117.287 10.225H119.605L121.315 12.543H119.719ZM130.522 24.171C129.584 24.171 128.869 23.9557 128.375 23.525C127.881 23.0817 127.634 22.442 127.634 21.606V15.925H125.582V14.329H127.634V11.859L129.515 11.403V14.329H132.365V15.925H129.515V21.169C129.515 21.663 129.622 22.0177 129.838 22.233C130.066 22.4357 130.433 22.537 130.94 22.537C131.206 22.537 131.44 22.518 131.643 22.48C131.858 22.442 132.086 22.385 132.327 22.309V23.905C132.073 23.9937 131.776 24.057 131.434 24.095C131.104 24.1457 130.8 24.171 130.522 24.171ZM133.765 24V14.329H135.665V15.564C135.969 15.108 136.342 14.7533 136.786 14.5C137.242 14.234 137.755 14.101 138.325 14.101C138.717 14.1137 139.04 14.1707 139.294 14.272V15.982C139.116 15.906 138.933 15.8553 138.743 15.83C138.553 15.792 138.363 15.773 138.173 15.773C137.615 15.773 137.121 15.925 136.691 16.229C136.26 16.5203 135.918 16.951 135.665 17.521V24H133.765ZM144.895 24.171C143.945 24.171 143.083 23.9493 142.311 23.506C141.551 23.0627 140.943 22.461 140.487 21.701C140.043 20.941 139.822 20.0923 139.822 19.155C139.822 18.2303 140.037 17.3943 140.468 16.647C140.898 15.887 141.481 15.2853 142.216 14.842C142.95 14.386 143.767 14.158 144.667 14.158C145.566 14.158 146.364 14.386 147.061 14.842C147.757 15.2853 148.308 15.8933 148.714 16.666C149.132 17.426 149.341 18.2873 149.341 19.25V19.782H141.722C141.823 20.314 142.019 20.789 142.311 21.207C142.615 21.625 142.995 21.9543 143.451 22.195C143.919 22.4357 144.426 22.556 144.971 22.556C145.439 22.556 145.889 22.4863 146.32 22.347C146.763 22.195 147.13 21.9797 147.422 21.701L148.638 22.898C148.068 23.3287 147.479 23.6517 146.871 23.867C146.275 24.0697 145.617 24.171 144.895 24.171ZM141.741 18.357H147.46C147.384 17.8503 147.206 17.407 146.928 17.027C146.662 16.6343 146.326 16.3303 145.921 16.115C145.528 15.887 145.097 15.773 144.629 15.773C144.147 15.773 143.704 15.8807 143.299 16.096C142.893 16.3113 142.551 16.6153 142.273 17.008C142.007 17.388 141.829 17.8377 141.741 18.357ZM154.568 24.19C153.732 24.19 152.947 24.0697 152.212 23.829C151.49 23.5757 150.863 23.221 150.331 22.765L151.376 21.511C151.87 21.9037 152.377 22.2077 152.896 22.423C153.428 22.6257 153.966 22.727 154.511 22.727C155.195 22.727 155.752 22.594 156.183 22.328C156.614 22.062 156.829 21.7137 156.829 21.283C156.829 20.9283 156.702 20.6497 156.449 20.447C156.196 20.2443 155.803 20.105 155.271 20.029L153.523 19.782C152.56 19.6427 151.838 19.345 151.357 18.889C150.876 18.433 150.635 17.825 150.635 17.065C150.635 16.4823 150.793 15.9757 151.11 15.545C151.427 15.1017 151.87 14.7597 152.44 14.519C153.01 14.2657 153.675 14.139 154.435 14.139C155.132 14.139 155.803 14.2403 156.449 14.443C157.095 14.6457 157.716 14.9623 158.311 15.393L157.342 16.647C156.81 16.2923 156.291 16.0327 155.784 15.868C155.29 15.7033 154.79 15.621 154.283 15.621C153.7 15.621 153.232 15.7477 152.877 16.001C152.522 16.2417 152.345 16.5583 152.345 16.951C152.345 17.3057 152.465 17.5843 152.706 17.787C152.959 17.977 153.371 18.11 153.941 18.186L155.689 18.433C156.652 18.5723 157.38 18.87 157.874 19.326C158.368 19.7693 158.615 20.371 158.615 21.131C158.615 21.7137 158.438 22.2393 158.083 22.708C157.728 23.164 157.247 23.525 156.639 23.791C156.031 24.057 155.341 24.19 154.568 24.19Z" fill="black"/>
<defs>
<clipPath id="clip0_13_82">
<rect width="24" height="24" fill="white" transform="translate(10 5.5)"/>
</clipPath>
</defs>
</svg>
